<svg width="22" height="22" viewBox="0 0 22 22" fill="none" xmlns="http://www.w3.org/2000/svg">
<path d="M18.2596 4.84598H7.58695C6.07354 4.84598 4.84668 6.07284 4.84668 7.58625V18.2589C4.84668 19.7723 6.07354 20.9992 7.58695 20.9992H18.2596C19.773 20.9992 20.9999 19.7723 20.9999 18.2589V7.58625C20.9999 6.07284 19.773 4.84598 18.2596 4.84598Z" stroke="black" stroke-opacity="0.63" stroke-linejoin="round"/>
<path d="M17.1291 4.84599L17.1532 3.6922C17.1511 2.97881 16.8669 2.29521 16.3624 1.79077C15.858 1.28632 15.1744 1.00203 14.461 1H4.0768C3.26152 1.00241 2.48032 1.32734 1.90383 1.90383C1.32734 2.48032 1.00241 3.26152 1 4.0768V14.461C1.00203 15.1744 1.28632 15.858 1.79077 16.3624C2.29521 16.8669 2.97881 17.1511 3.6922 17.1532H4.84599" stroke="black" stroke-opacity="0.63" stroke-linecap="round" stroke-linejoin="round"/>
</svg>
