<svg width="61" height="77" viewBox="0 0 61 77" fill="none" xmlns="http://www.w3.org/2000/svg">
<path d="M40.2394 0H8.67754C3.92849 0 0 3.90828 0 8.65733V68.3427C0 73.0917 3.92849 77 8.67754 77H51.5158C56.2649 77 60.1924 73.0917 60.1924 68.3427V20.9306L40.2394 0Z" fill="#0A6D42"/>
<path d="M40.337 0.05896L60.2126 20.9501H46.9815C43.3077 20.9501 40.337 17.9799 40.337 14.3061V0.05896Z" fill="#24BC73"/>
<path d="M23.4797 26.3499L29.5627 36.7306L35.6457 26.3499H40.1419L31.943 39.0448L40.1419 51.7398H35.6457L29.5627 41.888L23.4797 51.7398H18.9836L27.0502 39.0448L18.9836 26.3499H23.4797Z" fill="white"/>
</svg>
