<svg width="22" height="22" viewBox="0 0 22 22" fill="none" xmlns="http://www.w3.org/2000/svg">
<path d="M19.8643 13.1084L19.4976 17.6917C19.3601 19.0942 19.2501 20.1667 16.7659 20.1667H5.23428C2.75011 20.1667 2.64011 19.0942 2.50261 17.6917L2.13594 13.1084C2.06261 12.3475 2.30094 11.6417 2.73178 11.1009C2.74094 11.0917 2.74094 11.0917 2.75011 11.0825C3.25428 10.4684 4.01511 10.0834 4.86761 10.0834H17.1326C17.9851 10.0834 18.7368 10.4684 19.2318 11.0642C19.2409 11.0734 19.2501 11.0825 19.2501 11.0917C19.6993 11.6325 19.9468 12.3384 19.8643 13.1084Z" stroke="#292D32" strokeMiterlimit="10"/>
<path d="M3.20825 10.4775V5.75667C3.20825 2.64001 3.98742 1.86084 7.10409 1.86084H8.26825C9.43242 1.86084 9.69825 2.20917 10.1383 2.79584L11.3024 4.35417C11.5958 4.73917 11.7699 4.97751 12.5491 4.97751H14.8866C18.0033 4.97751 18.7824 5.75667 18.7824 8.87334V10.5142" stroke="#292D32" strokeMiterlimit="10" strokeLinecap="round" strokeLinejoin="round"/>
<path d="M12.2531 18C12.046 18 11.8703 17.9228 11.7259 17.7683C11.5818 17.6137 11.5097 17.4259 11.5097 17.205C11.5097 17.1717 11.5234 17.0876 11.5509 16.9527L9.30187 15.5283C9.23437 15.6114 9.15177 15.6767 9.05406 15.724C8.95635 15.7713 8.85146 15.795 8.73937 15.795C8.53396 15.795 8.35938 15.717 8.21563 15.561C8.07188 15.405 8 15.218 8 15C8 14.782 8.07188 14.595 8.21563 14.439C8.35938 14.283 8.53396 14.205 8.73937 14.205C8.85125 14.205 8.95615 14.2287 9.05406 14.276C9.15198 14.3233 9.23458 14.3887 9.30187 14.472L11.5512 13.0537C11.5367 13.0106 11.5261 12.9678 11.5197 12.9253C11.513 12.8827 11.5097 12.8391 11.5097 12.7947C11.5097 12.574 11.5823 12.3863 11.7275 12.2317C11.8727 12.0772 12.049 12 12.2562 12C12.4635 12 12.6394 12.0774 12.7837 12.2323C12.9281 12.3872 13.0002 12.5752 13 12.7963C12.9998 13.0174 12.9274 13.205 12.7828 13.359C12.6382 13.513 12.4622 13.5899 12.2547 13.5897C12.1418 13.5897 12.0376 13.565 11.9422 13.5157C11.8468 13.4663 11.7655 13.4 11.6984 13.3167L9.44875 14.741C9.46333 14.7841 9.47385 14.827 9.48031 14.8697C9.48698 14.9121 9.49031 14.9556 9.49031 15C9.49031 15.0444 9.48698 15.0879 9.48031 15.1303C9.47365 15.1728 9.46323 15.2157 9.44906 15.259L11.6984 16.6833C11.7657 16.6 11.847 16.5337 11.9422 16.4843C12.0376 16.435 12.1418 16.4103 12.2547 16.4103C12.4618 16.4103 12.6378 16.4877 12.7828 16.6423C12.9276 16.7974 13 16.9856 13 17.2067C13 17.4278 12.9274 17.6153 12.7822 17.7693C12.637 17.9233 12.4604 18.0002 12.2531 18ZM12.2547 17.6667C12.3774 17.6667 12.4802 17.6224 12.5631 17.534C12.646 17.4456 12.6875 17.336 12.6875 17.2053C12.6875 17.0747 12.646 16.965 12.5631 16.8763C12.4802 16.7877 12.3775 16.7434 12.255 16.7437C12.1325 16.7439 12.0297 16.7881 11.9466 16.8763C11.8634 16.9646 11.822 17.0741 11.8222 17.205C11.8224 17.3359 11.8639 17.4456 11.9466 17.534C12.0293 17.6224 12.1318 17.6667 12.2547 17.6667ZM8.73937 15.4613C8.86354 15.4613 8.96771 15.4171 9.05187 15.3287C9.13583 15.2402 9.17781 15.1307 9.17781 15C9.17781 14.8693 9.13583 14.7598 9.05187 14.6713C8.96792 14.5829 8.86375 14.5387 8.73937 14.5387C8.61833 14.5387 8.51698 14.5829 8.43531 14.6713C8.35365 14.7598 8.31271 14.8693 8.3125 15C8.31229 15.1307 8.35323 15.2403 8.43531 15.329C8.5174 15.4177 8.61875 15.4618 8.73937 15.4613ZM12.255 13.2563C12.3775 13.2563 12.4802 13.2121 12.5631 13.1237C12.646 13.0352 12.6875 12.9256 12.6875 12.7947C12.6875 12.6638 12.646 12.5542 12.5631 12.466C12.4802 12.3778 12.3775 12.3336 12.255 12.3333C12.1325 12.3331 12.0297 12.3773 11.9466 12.466C11.8634 12.5547 11.822 12.6643 11.8222 12.795C11.8224 12.9257 11.8639 13.0352 11.9466 13.1237C12.0293 13.2121 12.1321 13.2563 12.255 13.2563Z" fill="#292D32"/>
</svg>
