<svg width="27" height="25" viewBox="0 0 27 25" fill="none" xmlns="http://www.w3.org/2000/svg">
<path d="M25.87 19.1944L23.551 23.2111C23.3344 23.586 23.0302 23.9029 22.6643 24.1344C22.2984 24.366 21.8819 24.5054 21.4503 24.5406L21.2307 24.55H5.77055C5.43583 24.5491 5.11628 24.4897 4.8119 24.3719L4.59099 24.2755L7.52316 19.1944H25.87ZM8.91828 0.903835L11.9549 6.16434L2.78349 22.0516L0.358755 17.8555C0.12373 17.4485 0 16.9867 0 16.5166C0 16.0466 0.12373 15.5848 0.358755 15.1777L8.08951 1.78884C8.29838 1.42734 8.58356 1.12743 8.91828 0.903835ZM16.5928 0.449952C17.0258 0.449731 17.4523 0.554499 17.8359 0.755274C18.2195 0.95605 18.5487 1.24685 18.7953 1.60274L18.9104 1.78884L26.6412 15.1777C26.8407 15.5232 26.9572 15.9007 26.9893 16.2863L27 16.5166H21.0232L11.7474 0.449952H16.5928ZM13.5013 8.84212L17.933 16.5166H9.06958L13.5013 8.84212Z" fill="url(#paint0_linear_39_1555)"/>
<defs>
<linearGradient id="paint0_linear_39_1555" x1="13.5" y1="0.449951" x2="13.5" y2="24.55" gradientUnits="userSpaceOnUse">
<stop stop-color="#C441F4"/>
<stop offset="1" stop-color="#00DAEA"/>
</linearGradient>
</defs>
</svg>
