<svg width="150" height="29" viewBox="0 0 150 29" fill="none" xmlns="http://www.w3.org/2000/svg">
<path d="M25.87 21.1944L23.551 25.2111C23.3344 25.586 23.0302 25.9029 22.6643 26.1344C22.2984 26.366 21.8819 26.5054 21.4503 26.5406L21.2307 26.55H5.77055C5.43583 26.5491 5.11628 26.4897 4.8119 26.3719L4.59099 26.2755L7.52316 21.1944H25.87ZM8.91828 2.90384L11.9549 8.16434L2.78349 24.0516L0.358755 19.8555C0.12373 19.4485 0 18.9867 0 18.5166C0 18.0466 0.12373 17.5848 0.358755 17.1777L8.08951 3.78884C8.29838 3.42734 8.58356 3.12743 8.91828 2.90384ZM16.5928 2.44995C17.0258 2.44973 17.4523 2.5545 17.8359 2.75527C18.2195 2.95605 18.5487 3.24685 18.7953 3.60274L18.9104 3.78884L26.6412 17.1777C26.8407 17.5232 26.9572 17.9007 26.9893 18.2863L27 18.5166H21.0232L11.7474 2.44995H16.5928ZM13.5013 10.8421L17.933 18.5166H9.06958L13.5013 10.8421Z" fill="url(#paint0_linear_39_1552)"/>
<path d="M39.76 6.6H41.388L49.418 19.272H49.462V6.6H51.046V22H49.418L41.388 9.328H41.344V22H39.76V6.6ZM54.2327 19.976V13.068L56.2567 11.044H61.7787L63.8247 13.068V17.006H55.8607V19.47L56.9607 20.548H61.0747L62.1747 19.47V18.634H63.8027V19.976L61.7787 22H56.2567L54.2327 19.976ZM62.1967 15.598V13.574L61.0967 12.496H56.9607L55.8607 13.574V15.598H62.1967ZM66.6748 19.976V11.044H68.3028V19.47L69.4028 20.548H71.6028L74.3308 17.82V11.044H75.9588V22H74.3748V19.668L72.0428 22H68.6988L66.6748 19.976ZM79.2672 11.044H80.8512V13.002L82.8092 11.044H85.6472V12.496H83.2272L80.8952 14.828V22H79.2672V11.044ZM86.9534 19.976V13.068L88.9774 11.044H94.6094L96.6334 13.068V19.976L94.6094 22H88.9774L86.9534 19.976ZM93.9054 20.548L95.0054 19.47V13.574L93.9054 12.496H89.6814L88.5814 13.574V19.47L89.6814 20.548H93.9054ZM99.8303 6.6H108.718L111.138 9.02V19.58L108.718 22H99.8303V6.6ZM107.97 20.504L109.466 19.03V9.57L107.97 8.096H101.502V20.504H107.97ZM114.33 11.044H115.914V13.002L117.872 11.044H120.71V12.496H118.29L115.958 14.828V22H114.33V11.044ZM122.685 8.536V7.568L123.345 6.908H124.313L124.973 7.568V8.536L124.313 9.196H123.345L122.685 8.536ZM123.015 11.044H124.643V22H123.015V11.044ZM126.846 11.044H128.518L131.774 20.372H131.862L135.118 11.044H136.79L132.764 22H130.872L126.846 11.044ZM138.344 19.976V13.068L140.368 11.044H145.89L147.936 13.068V17.006H139.972V19.47L141.072 20.548H145.186L146.286 19.47V18.634H147.914V19.976L145.89 22H140.368L138.344 19.976ZM146.308 15.598V13.574L145.208 12.496H141.072L139.972 13.574V15.598H146.308Z" fill="black"/>
<defs>
<linearGradient id="paint0_linear_39_1552" x1="13.5" y1="2.44995" x2="13.5" y2="26.55" gradientUnits="userSpaceOnUse">
<stop stop-color="#C441F4"/>
<stop offset="1" stop-color="#00DAEA"/>
</linearGradient>
</defs>
</svg>
