<svg width="37" height="33" viewBox="0 0 37 33" fill="none" xmlns="http://www.w3.org/2000/svg">
<path d="M34.5125 25.0065L31.4188 30.365C31.1299 30.8652 30.724 31.2879 30.2359 31.5968C29.7478 31.9057 29.192 32.0917 28.6163 32.1387L28.3234 32.1512H7.69834C7.2518 32.15 6.8255 32.0708 6.41944 31.9137L6.12472 31.7851L10.0364 25.0065H34.5125ZM11.8976 0.605515L15.9487 7.62341L3.71338 28.8182L0.478605 23.2203C0.165065 22.6773 0 22.0612 0 21.4341C0 20.8071 0.165065 20.191 0.478605 19.648L10.792 1.78618C11.0706 1.30391 11.4511 0.903807 11.8976 0.605515ZM22.136 4.62095e-07C22.7136 -0.000293295 23.2827 0.139474 23.7944 0.407324C24.3062 0.675173 24.7453 1.06312 25.0743 1.5379L25.2279 1.78618L35.5413 19.648C35.8074 20.1088 35.9628 20.6125 36.0057 21.1269L36.02 21.4341H28.0465L15.6718 4.62095e-07H22.136ZM18.0117 11.1958L23.924 21.4341H12.0995L18.0117 11.1958Z" fill="url(#paint0_linear_301_577)"/>
<defs>
<linearGradient id="paint0_linear_301_577" x1="18.01" y1="0" x2="18.01" y2="32.1512" gradientUnits="userSpaceOnUse">
<stop stop-color="#C441F4"/>
<stop offset="1" stop-color="#00DAEA"/>
</linearGradient>
</defs>
</svg>
