<svg width="181" height="91" viewBox="0 0 181 91" fill="none" xmlns="http://www.w3.org/2000/svg">
<path d="M0 90.5C2.09833e-06 66.4979 9.5348 43.4789 26.5068 26.5068C43.4789 9.5348 66.4979 2.57505e-06 90.5 0C114.502 -2.57505e-06 137.521 9.53479 154.493 26.5068C171.465 43.4789 181 66.4979 181 90.5L149.136 90.5C149.136 74.9486 142.959 60.0342 131.962 49.0377C120.966 38.0413 106.051 31.8635 90.5 31.8635C74.9486 31.8635 60.0342 38.0413 49.0377 49.0377C38.0413 60.0342 31.8635 74.9486 31.8635 90.5H0Z" fill="#2F388B"/>
<path d="M0 90.5C1.72844e-06 70.7289 6.47451 51.5017 18.4338 35.7578L43.8071 55.0316C36.0584 65.2324 31.8635 77.69 31.8635 90.5H0Z" fill="#3983FF"/>
<mask id="path-3-inside-1_0_1" fill="white">
<path d="M35 90.5C35 75.7805 40.8473 61.6638 51.2556 51.2556C61.6638 40.8473 75.7805 35 90.5 35C105.22 35 119.336 40.8473 129.744 51.2556C140.153 61.6638 146 75.7805 146 90.5L90.5 90.5L35 90.5Z"/>
</mask>
<path d="M35 90.5C35 75.7805 40.8473 61.6638 51.2556 51.2556C61.6638 40.8473 75.7805 35 90.5 35C105.22 35 119.336 40.8473 129.744 51.2556C140.153 61.6638 146 75.7805 146 90.5L90.5 90.5L35 90.5Z" fill="#2F388B" stroke="#3F4AB3" strokeWidth="2" mask="url(#path-3-inside-1_0_1)"/>
<path d="M19.6392 34.2062C33.571 16.6692 53.5109 4.92137 75.6028 1.23454L80.8478 32.6634C66.5342 35.0521 53.6147 42.6638 44.5881 54.0263L19.6392 34.2062Z" fill="#6860FE"/>
<path d="M77.6238 0.920683C91.4845 -1.07165 105.618 0.179614 118.913 4.57603L108.91 34.8284C100.295 31.9799 91.1378 31.1692 82.1573 32.46L77.6238 0.920683Z" fill="#8C44FD"/>
<path d="M120.904 5.26025C135.109 10.3271 154.5 22.5 167.5 43.5L134.163 51.3623C127.641 44.0858 119.403 38.5547 110.199 35.2718L120.904 5.26025Z" fill="#B325FC"/>
<path d="M47.797 76.7273V84H46.9163V77.6506H46.8737L45.0981 78.8295V77.9347L46.9163 76.7273H47.797ZM52.2607 84.0994C51.7257 84.0994 51.27 83.9538 50.8936 83.6626C50.5171 83.3691 50.2295 82.9441 50.0306 82.3878C49.8318 81.8291 49.7323 81.1544 49.7323 80.3636C49.7323 79.5777 49.8318 78.9065 50.0306 78.3501C50.2319 77.7914 50.5207 77.3653 50.8971 77.0717C51.2759 76.7758 51.7304 76.6278 52.2607 76.6278C52.791 76.6278 53.2444 76.7758 53.6208 77.0717C53.9996 77.3653 54.2884 77.7914 54.4873 78.3501C54.6885 78.9065 54.7892 79.5777 54.7892 80.3636C54.7892 81.1544 54.6897 81.8291 54.4909 82.3878C54.292 82.9441 54.0044 83.3691 53.6279 83.6626C53.2515 83.9538 52.7958 84.0994 52.2607 84.0994ZM52.2607 83.3182C52.791 83.3182 53.203 83.0625 53.4965 82.5511C53.7901 82.0398 53.9369 81.3106 53.9369 80.3636C53.9369 79.7339 53.8694 79.1977 53.7345 78.755C53.6019 78.3123 53.4101 77.9749 53.1592 77.7429C52.9106 77.5109 52.6111 77.3949 52.2607 77.3949C51.7352 77.3949 51.3244 77.6541 51.0285 78.1726C50.7326 78.6887 50.5846 79.419 50.5846 80.3636C50.5846 80.9934 50.6509 81.5284 50.7835 81.9688C50.916 82.4091 51.1066 82.7441 51.3552 82.9737C51.6061 83.2034 51.908 83.3182 52.2607 83.3182ZM58.5107 84.0994C57.9757 84.0994 57.52 83.9538 57.1436 83.6626C56.7671 83.3691 56.4795 82.9441 56.2806 82.3878C56.0818 81.8291 55.9823 81.1544 55.9823 80.3636C55.9823 79.5777 56.0818 78.9065 56.2806 78.3501C56.4819 77.7914 56.7707 77.3653 57.1471 77.0717C57.5259 76.7758 57.9804 76.6278 58.5107 76.6278C59.041 76.6278 59.4944 76.7758 59.8708 77.0717C60.2496 77.3653 60.5384 77.7914 60.7373 78.3501C60.9385 78.9065 61.0392 79.5777 61.0392 80.3636C61.0392 81.1544 60.9397 81.8291 60.7409 82.3878C60.542 82.9441 60.2544 83.3691 59.8779 83.6626C59.5015 83.9538 59.0458 84.0994 58.5107 84.0994ZM58.5107 83.3182C59.041 83.3182 59.453 83.0625 59.7465 82.5511C60.0401 82.0398 60.1869 81.3106 60.1869 80.3636C60.1869 79.7339 60.1194 79.1977 59.9845 78.755C59.8519 78.3123 59.6601 77.9749 59.4092 77.7429C59.1606 77.5109 58.8611 77.3949 58.5107 77.3949C57.9852 77.3949 57.5744 77.6541 57.2785 78.1726C56.9826 78.6887 56.8346 79.419 56.8346 80.3636C56.8346 80.9934 56.9009 81.5284 57.0335 81.9688C57.166 82.4091 57.3566 82.7441 57.6052 82.9737C57.8561 83.2034 58.158 83.3182 58.5107 83.3182ZM67.488 79C67.4099 78.7609 67.3069 78.5466 67.1791 78.3572C67.0536 78.1655 66.9033 78.0021 66.7281 77.8672C66.5553 77.7322 66.3588 77.6293 66.1386 77.5582C65.9184 77.4872 65.6769 77.4517 65.4142 77.4517C64.9833 77.4517 64.5915 77.563 64.2387 77.7855C63.886 78.008 63.6054 78.3359 63.3971 78.7692C63.1888 79.2024 63.0846 79.7339 63.0846 80.3636C63.0846 80.9934 63.19 81.5249 63.4007 81.9581C63.6114 82.3913 63.8966 82.7192 64.2565 82.9418C64.6163 83.1643 65.0212 83.2756 65.471 83.2756C65.8876 83.2756 66.2546 83.1868 66.5718 83.0092C66.8914 82.8293 67.14 82.576 67.3176 82.2493C67.4975 81.9202 67.5874 81.5331 67.5874 81.0881L67.8573 81.1449H65.6698V80.3636H68.4397V81.1449C68.4397 81.7438 68.3119 82.2647 68.0562 82.7074C67.8029 83.1501 67.4525 83.4934 67.0051 83.7372C66.56 83.9787 66.0486 84.0994 65.471 84.0994C64.827 84.0994 64.2612 83.9479 63.7735 83.6449C63.2882 83.3419 62.9094 82.911 62.6372 82.3523C62.3673 81.7936 62.2323 81.1307 62.2323 80.3636C62.2323 79.7884 62.3093 79.2711 62.4632 78.8118C62.6194 78.3501 62.8396 77.9571 63.1237 77.6328C63.4078 77.3085 63.7439 77.0599 64.1322 76.8871C64.5204 76.7143 64.9478 76.6278 65.4142 76.6278C65.7977 76.6278 66.1552 76.6858 66.4866 76.8018C66.8204 76.9155 67.1175 77.0777 67.3779 77.2884C67.6407 77.4967 67.8597 77.7464 68.0349 78.0376C68.2101 78.3265 68.3308 78.6473 68.3971 79H67.488ZM69.9481 84V76.7273H72.4907C72.9973 76.7273 73.4152 76.8149 73.7442 76.9901C74.0733 77.1629 74.3183 77.3961 74.4793 77.6896C74.6403 77.9808 74.7208 78.304 74.7208 78.6591C74.7208 78.9716 74.6652 79.2296 74.5539 79.4332C74.445 79.6368 74.3006 79.7978 74.1207 79.9162C73.9431 80.0346 73.7501 80.1222 73.5418 80.179V80.25C73.7644 80.2642 73.9881 80.3423 74.213 80.4844C74.4379 80.6264 74.6261 80.83 74.7776 81.0952C74.9291 81.3603 75.0049 81.6847 75.0049 82.0682C75.0049 82.4328 74.922 82.7607 74.7563 83.0518C74.5906 83.343 74.329 83.5739 73.9715 83.7443C73.614 83.9148 73.1488 84 72.5759 84H69.9481ZM70.8287 83.2188H72.5759C73.1512 83.2188 73.5596 83.1075 73.801 82.8849C74.0449 82.66 74.1668 82.3878 74.1668 82.0682C74.1668 81.822 74.1041 81.5947 73.9786 81.3864C73.8531 81.1757 73.6744 81.0076 73.4424 80.8821C73.2104 80.7543 72.9358 80.6903 72.6185 80.6903H70.8287V83.2188ZM70.8287 79.9233H72.4623C72.7274 79.9233 72.9665 79.8712 73.1796 79.767C73.395 79.6629 73.5655 79.5161 73.691 79.3267C73.8188 79.1373 73.8827 78.9148 73.8827 78.6591C73.8827 78.3395 73.7715 78.0684 73.5489 77.8459C73.3264 77.621 72.9736 77.5085 72.4907 77.5085H70.8287V79.9233ZM82.5883 81.7699V78.5455H83.4264V84H82.5883V83.0767H82.5315C82.4037 83.3537 82.2048 83.5893 81.9349 83.7834C81.665 83.9751 81.3241 84.071 80.9122 84.071C80.5713 84.071 80.2683 83.9964 80.0031 83.8473C79.738 83.6958 79.5296 83.4685 79.3781 83.1655C79.2266 82.8601 79.1508 82.4754 79.1508 82.0114V78.5455H79.9889V81.9545C79.9889 82.3523 80.1002 82.6695 80.3227 82.9062C80.5476 83.143 80.8341 83.2614 81.1821 83.2614C81.3904 83.2614 81.6023 83.2081 81.8177 83.1016C82.0355 82.995 82.2178 82.8317 82.3646 82.6115C82.5138 82.3913 82.5883 82.1108 82.5883 81.7699ZM88.825 79.767L88.0722 79.9801C88.0248 79.8546 87.955 79.7327 87.8627 79.6143C87.7727 79.4936 87.6496 79.3942 87.4933 79.3161C87.3371 79.2379 87.137 79.1989 86.8932 79.1989C86.5594 79.1989 86.2812 79.2758 86.0587 79.4297C85.8385 79.5812 85.7284 79.7741 85.7284 80.0085C85.7284 80.2169 85.8042 80.3814 85.9557 80.5021C86.1072 80.6229 86.344 80.7235 86.6659 80.804L87.4756 81.0028C87.9633 81.1212 88.3267 81.3023 88.5658 81.5462C88.8049 81.7876 88.9244 82.099 88.9244 82.4801C88.9244 82.7926 88.8345 83.072 88.6546 83.3182C88.477 83.5644 88.2284 83.7585 87.9088 83.9006C87.5892 84.0426 87.2175 84.1136 86.7938 84.1136C86.2374 84.1136 85.777 83.9929 85.4124 83.7514C85.0478 83.5099 84.817 83.1572 84.7199 82.6932L85.5154 82.4943C85.5911 82.7879 85.7343 83.008 85.945 83.1548C86.1581 83.3016 86.4363 83.375 86.7796 83.375C87.1702 83.375 87.4803 83.2921 87.71 83.1264C87.942 82.9583 88.058 82.7571 88.058 82.5227C88.058 82.3333 87.9917 82.1747 87.8591 82.0469C87.7265 81.9167 87.5229 81.8196 87.2483 81.7557L86.3392 81.5426C85.8397 81.4242 85.4727 81.2408 85.2384 80.9922C85.0064 80.7412 84.8904 80.4276 84.8904 80.0511C84.8904 79.7434 84.9768 79.4711 85.1496 79.2344C85.3248 78.9976 85.5627 78.8118 85.8634 78.6768C86.1664 78.5419 86.5097 78.4744 86.8932 78.4744C87.433 78.4744 87.8567 78.5928 88.1645 78.8295C88.4746 79.0663 88.6948 79.3788 88.825 79.767ZM92.4729 84.1136C91.9474 84.1136 91.494 83.9976 91.1128 83.7656C90.734 83.5312 90.4417 83.2045 90.2357 82.7855C90.0321 82.3641 89.9303 81.8741 89.9303 81.3153C89.9303 80.7566 90.0321 80.2642 90.2357 79.8381C90.4417 79.4096 90.7281 79.0758 91.0951 78.8366C91.4644 78.5952 91.8953 78.4744 92.3877 78.4744C92.6718 78.4744 92.9523 78.5218 93.2293 78.6165C93.5063 78.7112 93.7584 78.8651 93.9857 79.0781C94.213 79.2888 94.3941 79.5682 94.529 79.9162C94.664 80.2642 94.7314 80.6927 94.7314 81.2017V81.5568H90.5269V80.8324H93.8792C93.8792 80.5246 93.8176 80.25 93.6945 80.0085C93.5738 79.767 93.401 79.5765 93.176 79.4368C92.9535 79.2971 92.6907 79.2273 92.3877 79.2273C92.0539 79.2273 91.7651 79.3101 91.5212 79.4759C91.2797 79.6392 91.0939 79.8523 90.9637 80.1151C90.8335 80.3778 90.7684 80.6596 90.7684 80.9602V81.4432C90.7684 81.8551 90.8394 82.2043 90.9814 82.4908C91.1259 82.7749 91.3259 82.9915 91.5816 83.1406C91.8373 83.2874 92.1344 83.3608 92.4729 83.3608C92.6931 83.3608 92.892 83.33 93.0695 83.2685C93.2494 83.2045 93.4045 83.1098 93.5347 82.9844C93.6649 82.8565 93.7655 82.6979 93.8366 82.5085L94.6462 82.7358C94.561 83.0104 94.4178 83.2519 94.2165 83.4602C94.0153 83.6662 93.7667 83.8272 93.4708 83.9432C93.1749 84.0568 92.8422 84.1136 92.4729 84.1136ZM98.066 84.1136C97.6114 84.1136 97.2101 83.9988 96.8621 83.7692C96.5141 83.5372 96.2419 83.2105 96.0454 82.7891C95.8489 82.3653 95.7506 81.8646 95.7506 81.2869C95.7506 80.714 95.8489 80.2169 96.0454 79.7955C96.2419 79.3741 96.5153 79.0485 96.8657 78.8189C97.2161 78.5893 97.6209 78.4744 98.0802 78.4744C98.4353 78.4744 98.7158 78.5336 98.9218 78.652C99.1301 78.768 99.2887 78.9006 99.3976 79.0497C99.5089 79.1965 99.5953 79.3172 99.6569 79.4119H99.7279V76.7273H100.566V84H99.7563V83.1619H99.6569C99.5953 83.2614 99.5077 83.3868 99.3941 83.5384C99.2805 83.6875 99.1183 83.8213 98.9076 83.9396C98.6969 84.0556 98.4163 84.1136 98.066 84.1136ZM98.1796 83.3608C98.5158 83.3608 98.7999 83.2732 99.0319 83.098C99.2639 82.9205 99.4403 82.6754 99.561 82.3629C99.6817 82.0481 99.7421 81.6847 99.7421 81.2727C99.7421 80.8655 99.6829 80.5092 99.5645 80.2038C99.4462 79.8961 99.271 79.657 99.039 79.4865C98.807 79.3137 98.5205 79.2273 98.1796 79.2273C97.8245 79.2273 97.5286 79.3184 97.2918 79.5007C97.0574 79.6806 96.8811 79.9257 96.7627 80.2358C96.6467 80.5436 96.5887 80.8892 96.5887 81.2727C96.5887 81.661 96.6479 82.0137 96.7662 82.331C96.887 82.6458 97.0645 82.8968 97.2989 83.0838C97.5357 83.2685 97.8292 83.3608 98.1796 83.3608ZM107.246 84.1136C106.753 84.1136 106.321 83.9964 105.949 83.7621C105.58 83.5277 105.291 83.1998 105.083 82.7784C104.877 82.357 104.774 81.8646 104.774 81.3011C104.774 80.733 104.877 80.237 105.083 79.8132C105.291 79.3894 105.58 79.0604 105.949 78.826C106.321 78.5916 106.753 78.4744 107.246 78.4744C107.738 78.4744 108.169 78.5916 108.538 78.826C108.91 79.0604 109.199 79.3894 109.405 79.8132C109.613 80.237 109.717 80.733 109.717 81.3011C109.717 81.8646 109.613 82.357 109.405 82.7784C109.199 83.1998 108.91 83.5277 108.538 83.7621C108.169 83.9964 107.738 84.1136 107.246 84.1136ZM107.246 83.3608C107.62 83.3608 107.927 83.2649 108.169 83.0732C108.41 82.8814 108.589 82.6293 108.705 82.3168C108.821 82.0043 108.879 81.6657 108.879 81.3011C108.879 80.9366 108.821 80.5968 108.705 80.282C108.589 79.9671 108.41 79.7126 108.169 79.5185C107.927 79.3243 107.62 79.2273 107.246 79.2273C106.872 79.2273 106.564 79.3243 106.322 79.5185C106.081 79.7126 105.902 79.9671 105.786 80.282C105.67 80.5968 105.612 80.9366 105.612 81.3011C105.612 81.6657 105.67 82.0043 105.786 82.3168C105.902 82.6293 106.081 82.8814 106.322 83.0732C106.564 83.2649 106.872 83.3608 107.246 83.3608ZM113.426 78.5455V79.2557H110.485V78.5455H113.426ZM111.366 84V77.7926C111.366 77.4801 111.439 77.2197 111.586 77.0114C111.733 76.803 111.923 76.6468 112.158 76.5426C112.392 76.4384 112.64 76.3864 112.9 76.3864C113.106 76.3864 113.274 76.4029 113.404 76.4361C113.534 76.4692 113.631 76.5 113.695 76.5284L113.454 77.2528C113.411 77.2386 113.352 77.2209 113.276 77.1996C113.203 77.1783 113.106 77.1676 112.985 77.1676C112.708 77.1676 112.508 77.2375 112.385 77.3771C112.264 77.5168 112.204 77.7216 112.204 77.9915V84H111.366ZM119.856 84.0994C119.387 84.0994 118.969 84.0189 118.602 83.858C118.238 83.697 117.948 83.4732 117.732 83.1868C117.519 82.898 117.403 82.563 117.384 82.1818H118.279C118.298 82.4162 118.378 82.6186 118.521 82.7891C118.663 82.9571 118.848 83.0874 119.078 83.1797C119.308 83.272 119.562 83.3182 119.842 83.3182C120.154 83.3182 120.431 83.2637 120.672 83.1548C120.914 83.0459 121.103 82.8944 121.241 82.7003C121.378 82.5062 121.447 82.2812 121.447 82.0256C121.447 81.758 121.38 81.5225 121.248 81.3189C121.115 81.1129 120.921 80.9519 120.665 80.8359C120.41 80.7199 120.097 80.6619 119.728 80.6619H119.146V79.8807H119.728C120.017 79.8807 120.27 79.8286 120.488 79.7244C120.708 79.6203 120.88 79.4735 121.003 79.2841C121.128 79.0947 121.191 78.8722 121.191 78.6165C121.191 78.3703 121.137 78.156 121.028 77.9737C120.919 77.7914 120.765 77.6494 120.566 77.5476C120.369 77.4458 120.137 77.3949 119.87 77.3949C119.619 77.3949 119.382 77.4411 119.16 77.5334C118.94 77.6233 118.76 77.7547 118.62 77.9276C118.48 78.098 118.405 78.304 118.393 78.5455H117.54C117.555 78.1643 117.669 77.8305 117.885 77.544C118.1 77.2552 118.382 77.0303 118.73 76.8693C119.08 76.7083 119.465 76.6278 119.884 76.6278C120.334 76.6278 120.72 76.719 121.042 76.9013C121.364 77.0812 121.611 77.3191 121.784 77.6151C121.957 77.911 122.043 78.2306 122.043 78.5739C122.043 78.9834 121.936 79.3326 121.72 79.6214C121.507 79.9103 121.217 80.1103 120.85 80.2216V80.2784C121.309 80.3542 121.668 80.5495 121.926 80.8643C122.184 81.1768 122.313 81.5639 122.313 82.0256C122.313 82.4209 122.205 82.776 121.99 83.0909C121.777 83.4034 121.486 83.6496 121.116 83.8295C120.747 84.0095 120.327 84.0994 119.856 84.0994ZM126.138 84.0994C125.603 84.0994 125.147 83.9538 124.771 83.6626C124.394 83.3691 124.106 82.9441 123.908 82.3878C123.709 81.8291 123.609 81.1544 123.609 80.3636C123.609 79.5777 123.709 78.9065 123.908 78.3501C124.109 77.7914 124.398 77.3653 124.774 77.0717C125.153 76.7758 125.607 76.6278 126.138 76.6278C126.668 76.6278 127.121 76.7758 127.498 77.0717C127.877 77.3653 128.165 77.7914 128.364 78.3501C128.565 78.9065 128.666 79.5777 128.666 80.3636C128.666 81.1544 128.567 81.8291 128.368 82.3878C128.169 82.9441 127.881 83.3691 127.505 83.6626C127.128 83.9538 126.673 84.0994 126.138 84.0994ZM126.138 83.3182C126.668 83.3182 127.08 83.0625 127.373 82.5511C127.667 82.0398 127.814 81.3106 127.814 80.3636C127.814 79.7339 127.746 79.1977 127.611 78.755C127.479 78.3123 127.287 77.9749 127.036 77.7429C126.788 77.5109 126.488 77.3949 126.138 77.3949C125.612 77.3949 125.201 77.6541 124.905 78.1726C124.61 78.6887 124.462 79.419 124.462 80.3636C124.462 80.9934 124.528 81.5284 124.66 81.9688C124.793 82.4091 124.984 82.7441 125.232 82.9737C125.483 83.2034 125.785 83.3182 126.138 83.3182ZM132.388 84.0994C131.853 84.0994 131.397 83.9538 131.021 83.6626C130.644 83.3691 130.356 82.9441 130.158 82.3878C129.959 81.8291 129.859 81.1544 129.859 80.3636C129.859 79.5777 129.959 78.9065 130.158 78.3501C130.359 77.7914 130.648 77.3653 131.024 77.0717C131.403 76.7758 131.857 76.6278 132.388 76.6278C132.918 76.6278 133.371 76.7758 133.748 77.0717C134.127 77.3653 134.415 77.7914 134.614 78.3501C134.815 78.9065 134.916 79.5777 134.916 80.3636C134.916 81.1544 134.817 81.8291 134.618 82.3878C134.419 82.9441 134.131 83.3691 133.755 83.6626C133.378 83.9538 132.923 84.0994 132.388 84.0994ZM132.388 83.3182C132.918 83.3182 133.33 83.0625 133.623 82.5511C133.917 82.0398 134.064 81.3106 134.064 80.3636C134.064 79.7339 133.996 79.1977 133.861 78.755C133.729 78.3123 133.537 77.9749 133.286 77.7429C133.038 77.5109 132.738 77.3949 132.388 77.3949C131.862 77.3949 131.451 77.6541 131.155 78.1726C130.86 78.6887 130.712 79.419 130.712 80.3636C130.712 80.9934 130.778 81.5284 130.91 81.9688C131.043 82.4091 131.234 82.7441 131.482 82.9737C131.733 83.2034 132.035 83.3182 132.388 83.3182Z" fill="white"/>
<circle cx="91" cy="63" r="4" fill="white"/>
<circle cx="91" cy="63" r="6.5" stroke="url(#paint0_linear_0_1)"/>
<path d="M90.8765 62.5155C90.6089 62.5837 90.4473 62.8559 90.5155 63.1235C90.5837 63.3911 90.8559 63.5527 91.1235 63.4845L90.8765 62.5155ZM167.93 43.7553C168.071 43.5178 167.993 43.2111 167.755 43.0701L163.886 40.7726C163.649 40.6317 163.342 40.7099 163.201 40.9473C163.06 41.1847 163.138 41.4915 163.376 41.6325L166.815 43.6747L164.773 47.1141C164.632 47.3515 164.71 47.6583 164.947 47.7993C165.185 47.9403 165.492 47.8621 165.633 47.6246L167.93 43.7553ZM91.1235 63.4845L167.624 43.9845L167.377 43.0155L90.8765 62.5155L91.1235 63.4845Z" fill="white"/>
<defs>
<linearGradient id="paint0_linear_0_1" x1="91" y1="56" x2="91" y2="70" gradientUnits="userSpaceOnUse">
<stop stop-color="white"/>
<stop offset="1" stop-color="#3F4AB3"/>
</linearGradient>
</defs>
</svg>
