<svg width="95" height="95" viewBox="0 0 95 95" fill="none" xmlns="http://www.w3.org/2000/svg">
<circle cx="47.5" cy="47.5" r="47.5" fill="#F1F1F1"/>
<path d="M62.386 38.9657C62.4341 36.7411 62.1383 32.4041 59.4041 29.7495C56.4229 26.847 51.5189 26.9018 49.5488 27.0594C48.733 27.1096 48.0892 27.7719 48.0621 28.5888C47.9593 30.5622 48.0421 35.4675 51.024 38.3653C53.4042 40.6787 57.0112 41.1108 59.3721 41.1108C59.5811 41.1108 59.7768 41.1068 59.9651 41.1008C60.398 41.9221 60.7608 42.7784 61.0497 43.6606C61.1327 43.9307 61.1888 44.2083 61.2173 44.4894C60.6855 44.3889 60.1771 44.1903 59.718 43.9037L59.4622 43.7448C59.1045 43.5077 58.7282 43.3 58.3369 43.1237C55.6546 41.9127 52.5082 42.4226 50.3455 44.4186C50.2499 44.0679 50.1243 43.7261 49.9702 43.3968C49.7924 43.1074 49.4258 42.9975 49.1181 43.1414C48.8105 43.2853 48.6598 43.6372 48.7681 43.9592C44.1346 42.8312 38.1988 42.3243 34.0301 45.3456C28.511 49.34 27.9754 58.4253 28.0008 62.1452C28.0072 63.5776 28.9264 64.8464 30.2855 65.2987C33.4343 66.3879 36.7331 66.9818 40.0641 67.0592C42.9084 67.0592 45.8075 66.4955 48.1343 64.8119C52.4619 61.673 53.7021 55.4167 54.0327 51.2507C54.0761 51.3041 54.1215 51.3555 54.1589 51.4123C54.3636 51.7192 54.7783 51.802 55.0852 51.5973C55.3921 51.3926 55.4749 50.9779 55.2702 50.671C54.8903 50.1354 54.3861 49.7 53.8009 49.4021C53.7699 49.3799 53.7368 49.3606 53.7021 49.3446C53.4154 49.1957 53.1186 49.0671 52.8139 48.96C53.0056 48.837 53.2046 48.7255 53.4096 48.626C53.9066 48.3587 54.4786 48.2647 55.0351 48.3589C55.4793 48.4975 55.8918 48.7222 56.2492 49.0201C56.4142 49.1383 56.5785 49.2545 56.7454 49.3627C57.3299 49.7512 57.9588 50.0682 58.6187 50.307C59.3943 50.5807 60.2099 50.7238 61.0323 50.7304C62.9252 50.7849 64.7154 49.8709 65.7815 48.3059C66.8476 46.7408 67.0426 44.7403 66.2989 42.9988C65.5479 41.2105 64.1509 39.7705 62.386 38.9657ZM51.9557 37.4076C49.3651 34.8885 49.305 30.45 49.3958 28.6575C49.3929 28.5871 49.4191 28.5186 49.4682 28.468C49.5174 28.4175 49.5851 28.3894 49.6556 28.3904C50.0296 28.361 50.5191 28.335 51.0841 28.335C53.2212 28.335 56.4269 28.713 58.4732 30.7045C60.492 32.6673 60.9736 35.7921 61.0443 37.9259C59.1313 34.7208 56.3538 32.1196 53.0302 30.4206C52.7064 30.244 52.3006 30.3633 52.124 30.6871C51.9473 31.011 52.0666 31.4167 52.3904 31.5934C57.7606 34.5232 59.7941 38.163 60.4627 39.7411C58.5152 39.8626 54.4067 39.7905 51.9557 37.4076ZM47.3516 63.7306C42.3254 67.3697 34.0408 65.1545 30.7096 64.0318C29.8921 63.7608 29.3393 62.9977 29.3365 62.1365C29.3125 58.623 29.7966 50.0579 34.8128 46.4268C38.9888 43.4022 45.4702 44.4574 49.2128 45.4511C49.4227 46.5657 49.2698 47.7182 48.7767 48.7396C48.6735 48.9462 48.6843 49.1916 48.8055 49.3883C48.9266 49.585 49.1408 49.7051 49.3718 49.7059C50.5298 49.719 51.6759 49.9409 52.7551 50.3611C52.5387 54.2353 51.5289 60.702 47.3516 63.7306ZM64.9993 46.9958C64.1979 48.6875 61.994 50.0479 59.0555 49.0421C58.4961 48.8375 57.963 48.5672 57.4674 48.2367C57.3178 48.1405 57.1715 48.0363 57.0239 47.9308C56.5225 47.5202 55.9405 47.2192 55.3156 47.0473C54.4712 46.8881 53.5979 47.0175 52.8359 47.4146C52.2198 47.7211 51.6403 48.0962 51.1082 48.5325C50.8304 48.4871 50.5646 48.4497 50.3355 48.427C50.5783 47.646 50.6735 46.8266 50.616 46.0108C52.6082 43.887 55.3877 43.2259 57.7926 44.3445C58.1259 44.4967 58.4463 44.6753 58.751 44.8788L59.0181 45.0444C59.0849 45.0865 60.7078 46.0609 61.7322 45.7737C62.0237 45.6963 62.269 45.4993 62.4074 45.2314C62.6142 44.5927 62.586 43.9011 62.3279 43.2813C62.073 42.4735 61.7518 41.6881 61.3676 40.9332C61.5103 40.8769 61.644 40.7999 61.7643 40.7048L61.7897 40.6834C61.9174 40.5791 62.0274 40.4548 62.1156 40.3154C63.4377 40.9946 64.4782 42.118 65.0541 43.4883C65.5312 44.6129 65.5113 45.8867 64.9993 46.9958Z" fill="black"/>
</svg>
